HIERARCHY
ROOT Hips
{
	OFFSET -3.958830 18.904000 13.208200
	CHANNELS 6 Xposition Yposition Zposition Zrotation Yrotation Xrotation 
	JOINT LHipJoint
	{
		OFFSET 0.000000 0.000000 0.000000
		CHANNELS 3 Zrotation Yrotation Xrotation
		JOINT LeftUpLeg
		{
			OFFSET 1.800000 -1.400000 0.085000
			CHANNELS 3 Zrotation Yrotation Xrotation
			JOINT LeftLeg
			{
				OFFSET 2.215000 -6.000000 0.000000
				CHANNELS 3 Zrotation Yrotation Xrotation
				JOINT LeftFoot
				{
					OFFSET 2.500000 -6.900000 0.000000
					CHANNELS 3 Zrotation Yrotation Xrotation
					JOINT LeftToeBase
					{
						OFFSET 0.200000 -0.500000 1.950000
						CHANNELS 3 Zrotation Yrotation Xrotation
						End Site
						{
							OFFSET 0.000000 0.000000 0.000000
						}
					}
				}
			}
		}
	}
	JOINT RHipJoint
	{
		OFFSET 0.000000 0.000000 0.000000
		CHANNELS 3 Zrotation Yrotation Xrotation
		JOINT RightUpLeg
		{
			OFFSET -1.800000 -1.400000 0.085000
			CHANNELS 3 Zrotation Yrotation Xrotation
			JOINT RightLeg
			{
				OFFSET -2.215000 -6.000000 0.000000
				CHANNELS 3 Zrotation Yrotation Xrotation
				JOINT RightFoot
				{
					OFFSET -2.500000 -6.900000 0.000000
					CHANNELS 3 Zrotation Yrotation Xrotation
					JOINT RightToeBase
					{
						OFFSET -0.200000 -0.500000 1.950000
						CHANNELS 3 Zrotation Yrotation Xrotation
						End Site
						{
							OFFSET 0.000000 0.000000 0.000000
						}
					}
				}
			}
		}
	}
	JOINT LowerBack
	{
		OFFSET 0.000000 0.000000 0.000000
		CHANNELS 3 Zrotation Yrotation Xrotation
		JOINT Spine
		{
			OFFSET -0.087000 1.940000 -0.288900
			CHANNELS 3 Zrotation Yrotation Xrotation
			JOINT Spine1
			{
				OFFSET 0.000000 1.950000 0.060000
				CHANNELS 3 Zrotation Yrotation Xrotation
				JOINT Neck
				{
					OFFSET 0.000000 0.000000 0.000000
					CHANNELS 3 Zrotation Yrotation Xrotation
					JOINT Neck1
					{
						OFFSET 0.000000 1.600000 0.340000
						CHANNELS 3 Zrotation Yrotation Xrotation
						JOINT Head
						{
							OFFSET 0.000000 1.667000 -0.240000
							CHANNELS 3 Zrotation Yrotation Xrotation
							End Site
							{
								OFFSET 0.000000 0.000000 0.000000
							}
						}
					}
				}
				JOINT LeftShoulder
				{
					OFFSET 0.000000 0.000000 0.000000
					CHANNELS 3 Zrotation Yrotation Xrotation
					JOINT LeftArm
					{
						OFFSET 2.700000 1.550000 -0.730000
						CHANNELS 3 Zrotation Yrotation Xrotation
						JOINT LeftForeArm
						{
							OFFSET 5.450000 0.000000 0.000000
							CHANNELS 3 Zrotation Yrotation Xrotation
							JOINT LeftHand
							{
								OFFSET 3.450000 0.000000 0.000000
								CHANNELS 3 Zrotation Yrotation Xrotation
								JOINT LeftHandIndex1
								{
									OFFSET 0.750000 0.000000 0.000000
									CHANNELS 3 Zrotation Yrotation Xrotation
									End Site
									{
										OFFSET 0.000000 0.000000 0.000000
									}
								}
							}
						}
					}
				}
				JOINT RightShoulder
				{
					OFFSET 0.000000 0.000000 0.000000
					CHANNELS 3 Zrotation Yrotation Xrotation
					JOINT RightArm
					{
						OFFSET -2.700000 1.550000 -0.730000
						CHANNELS 3 Zrotation Yrotation Xrotation
						JOINT RightForeArm
						{
							OFFSET -5.450000 0.000000 0.000000
							CHANNELS 3 Zrotation Yrotation Xrotation
							JOINT RightHand
							{
								OFFSET -3.450000 0.000000 0.000000
								CHANNELS 3 Zrotation Yrotation Xrotation
								JOINT RightHandIndex1
								{
									OFFSET -0.750000 0.000000 0.000000
									CHANNELS 3 Zrotation Yrotation Xrotation
									End Site
									{
										OFFSET 0.000000 0.000000 0.000000
									}
								}
							}
						}
					}
				}
			}
		}
	}
}
MOTION
Frames: 9
Frame Time: 0.016667
-0.809820 16.552920 -7.507350 1.666574 -14.851953 -7.186657 -15.435538 13.007345 5.506589 7.132714 -8.334216 -40.919418 -1.019986 12.684872 58.345905 1.038953 10.308707 0.830951 0.077790 -0.066360 0.184620 17.783147 -11.397235 1.210510 -22.100744 1.091129 4.374535 -3.483611 -7.213843 35.189863 -0.642389 -6.185765 2.174565 -0.091260 -0.132030 0.026610 -2.256357 -2.653967 -8.772139 16.795420 6.599039 26.264841 5.187087 10.318088 11.310855 3.966026 -4.104106 -21.784519 -10.650235 -0.210639 41.956874 -0.644300 -1.732640 -6.830840 24.934741 -41.852032 -3.035369 26.579304 -26.857474 -5.754610 4.968762 -11.627569 0.985297 -3.328484 3.279073 0.345570 -0.155630 0.146760 -0.043540 -29.628311 51.313442 -8.226924 -16.604549 24.053438 -3.859712 -7.149878 6.376583 0.217395 3.048250 -1.132705 -0.050920 0.041450 0.005460 -0.128450 
-0.765270 16.566980 -7.313970 2.402434 -12.964210 -8.295040 -15.299193 13.102632 5.338680 4.823221 -8.591967 -38.160152 -0.431368 12.190867 58.433617 1.048953 10.231274 0.881351 0.071840 -0.067590 0.151730 17.879852 -11.690778 1.205151 -20.306358 1.296120 4.684096 -7.760105 -5.679208 39.681198 -0.737160 -6.575063 2.061931 -0.078770 -0.092270 0.028330 -2.595070 -2.292051 -8.629899 17.490336 5.889281 24.434116 4.601684 8.880525 12.078709 3.155868 -4.671617 -21.316957 -12.088970 -0.245841 41.428706 -0.457940 -2.563670 -6.315400 23.456903 -41.329002 -2.726973 26.524731 -27.867773 -6.128332 6.474552 -11.419711 0.670116 -3.405777 3.253438 0.320480 -0.133920 0.118240 -0.033200 -27.060034 50.786923 -5.604061 -15.967024 23.563454 -4.491461 -9.181557 8.127381 -0.025583 3.014749 -1.214664 -0.055840 0.059420 0.023610 -0.109410 
-0.707820 16.593570 -7.132500 2.662201 -10.639997 -9.581301 -15.157501 13.217507 5.086801 2.323716 -8.594643 -34.847761 1.133905 10.964946 58.176371 1.028199 9.949671 0.997612 0.092580 -0.031690 0.145360 18.003189 -11.905167 1.280985 -17.536278 1.814147 3.749239 -11.604418 -4.058719 47.262055 -0.956773 -7.392926 1.807147 -0.049490 -0.075870 0.025010 -2.997984 -1.984740 -8.436194 18.813736 4.627836 23.131092 3.365179 7.128794 12.509747 2.520907 -5.001079 -20.708551 -12.951509 -0.140470 40.740166 -0.684480 -2.729980 -6.315640 21.552219 -40.736057 -1.812776 27.668073 -28.031162 -6.878866 7.834558 -12.160430 0.466259 -3.468739 3.241223 0.295680 -0.122120 0.107000 -0.014960 -24.545356 49.432001 -3.124222 -16.058354 23.772342 -4.605598 -10.084836 8.661686 -0.175882 2.974206 -1.238016 -0.051840 0.073690 0.014090 -0.094590 
-0.666370 16.615030 -6.955200 2.860762 -8.443754 -11.007294 -15.075330 13.393125 4.760344 0.438371 -7.970750 -31.165153 2.442437 9.958484 57.275002 1.026527 9.619977 1.129024 0.089770 -0.029310 0.108740 18.082679 -11.931211 1.481594 -14.260707 2.778918 1.825087 -14.025272 -2.752438 56.355756 -1.254011 -8.506835 1.468938 -0.053430 -0.049450 0.022800 -3.257328 -1.941111 -8.305656 19.079218 3.593255 22.096647 2.763037 5.551733 12.809016 1.601533 -4.936960 -20.572119 -13.670916 0.038466 41.579351 0.713090 -3.824780 -4.969320 20.549584 -39.696850 -1.225663 27.705305 -27.308326 -7.116247 9.240650 -14.157391 0.293069 -3.487140 3.312749 0.270490 -0.118750 0.090100 0.004930 -22.153440 47.533916 -0.020955 -16.271386 23.434339 -5.175967 -11.992061 10.743402 -0.436590 2.936303 -1.293770 -0.038770 0.072160 0.013590 -0.065210 
-0.646570 16.636670 -6.801130 3.030530 -7.391792 -12.800022 -14.998915 13.493670 4.335502 -0.598067 -6.787010 -27.564549 3.867329 9.263068 56.804266 1.015669 9.467599 1.205883 0.083040 -0.023490 0.066460 18.194905 -11.825155 1.779570 -10.957764 4.296863 -1.243950 -15.147243 -1.957667 65.834441 -1.579647 -9.749833 1.108388 -0.035250 0.002340 0.016000 -3.544326 -1.876217 -8.151983 19.129716 2.688320 21.540076 1.950297 4.169554 13.647645 0.783893 -5.554772 -19.853391 -15.750090 0.939767 42.024881 1.038170 -3.988690 -3.712430 19.469190 -37.428012 -0.461532 27.712723 -27.184929 -7.460188 12.071598 -15.350716 -0.266460 -3.576284 3.303344 0.243150 -0.090110 0.059010 0.027730 -19.837954 44.938341 3.387937 -16.650137 22.520478 -6.966455 -17.068764 16.037964 -1.517976 2.840203 -1.441344 -0.051230 0.099770 0.025990 -0.042740 
-0.647570 16.679140 -6.648950 2.716632 -5.499847 -15.016306 -14.951465 13.492652 3.896188 -1.503178 -5.873187 -23.737886 6.092859 7.994796 57.001606 1.021654 9.367635 1.258829 0.132840 0.055600 0.060240 18.318074 -11.614965 2.119713 -7.600850 5.140168 -3.933656 -14.061626 -3.259880 73.594906 -1.874290 -10.819688 0.798676 0.026070 0.029770 0.028030 -3.834511 -1.806902 -7.995914 19.292248 1.514275 21.567303 1.131695 2.577761 14.551857 -0.420652 -5.190963 -17.989688 -15.453897 0.701710 41.856181 1.643170 -4.472900 -3.859900 16.556394 -34.688458 0.849221 29.048687 -27.368622 -8.656219 16.995877 -18.040908 -1.329936 -3.695215 3.311252 0.199610 -0.064350 0.045190 0.058070 -15.230885 40.578477 7.500401 -15.785152 20.335153 -9.445865 -26.815381 24.758335 -4.680571 2.683522 -1.637630 -0.034030 0.110410 0.009280 -0.017550 
-0.649450 16.719860 -6.505580 2.404146 -3.325129 -17.046335 -14.922061 13.417800 3.450988 -1.400683 -4.922475 -19.730258 6.806631 7.463501 56.109365 0.960893 9.240850 1.309050 0.186920 0.140540 0.071630 18.423210 -11.433268 2.419400 -5.462528 5.692402 -7.247440 -11.225763 -6.280406 77.748884 -2.022267 -11.479779 0.596055 0.111430 0.070390 0.046080 -4.076347 -1.590312 -7.852829 18.797711 0.510498 21.881398 0.370799 1.116479 15.413824 -1.408967 -4.266068 -15.348873 -12.954403 0.377459 40.797778 1.856130 -3.952500 -4.802750 14.164672 -31.826042 1.984780 30.917999 -26.260926 -9.591740 23.815501 -22.508084 -3.051243 -3.833919 3.306605 0.153170 -0.011920 0.018560 0.074600 -11.444783 35.654969 8.604812 -13.755431 19.096597 -10.782568 -37.275735 32.845394 -9.634463 2.474953 -1.669743 -0.035920 0.132780 0.004000 -0.010740 
-0.662000 16.751150 -6.359680 2.046126 -1.749045 -18.419880 -14.991569 13.441239 3.144971 -0.758216 -4.339509 -17.088534 7.231709 7.267863 55.940590 0.934483 9.274760 1.306726 0.220150 0.187250 0.086040 18.420902 -11.027919 2.750394 -3.816161 6.478804 -11.805603 -7.106235 -10.109021 79.041282 -2.106880 -11.862400 0.472530 0.159590 0.089910 0.052180 -4.010596 -1.917417 -7.881479 16.886912 -0.560978 23.360677 0.405889 -0.106433 14.604158 -1.885920 -4.332690 -13.475275 -12.502297 1.053199 39.482490 2.076330 -3.065590 -6.364540 11.530615 -28.367282 2.748378 31.517498 -23.369991 -9.474919 32.372856 -29.366969 -5.881769 -3.878885 3.259557 0.158250 0.004560 0.017760 0.085450 -7.951461 31.735380 8.398273 -11.893793 17.608501 -11.409836 -48.982425 42.481566 -16.986689 2.218585 -1.482564 -0.050810 0.164040 0.002570 -0.016310 
-0.676170 16.775290 -6.222970 1.680679 -1.162619 -19.153800 -15.071571 13.440429 2.900810 0.235807 -3.999924 -15.132390 6.984779 7.425035 55.566326 0.908005 9.291565 1.300771 0.277730 0.267190 0.129450 18.403622 -10.593702 3.096525 -2.268120 7.355813 -16.679709 -2.263373 -13.201807 76.153988 -2.072816 -11.780651 0.468218 0.222120 0.083630 0.065240 -3.888604 -2.277482 -7.936083 14.640406 -1.534073 24.906487 0.844034 -1.316590 14.028103 -2.158926 -4.238743 -11.694835 -11.582903 1.831829 37.836340 1.264440 -1.439520 -7.907040 9.626536 -23.733010 2.677264 31.077540 -19.664180 -8.600258 45.037692 -36.131697 -11.062336 -3.876474 3.165254 0.145530 0.024010 0.027230 0.097270 -5.510417 26.932858 7.504009 -9.662111 16.155015 -10.804287 -64.940025 49.121984 -27.937756 1.969247 -1.202542 -0.046550 0.172300 -0.023170 -0.027040 
